<svg xmlns="http://www.w3.org/2000/svg" width="32" height="32" id="seo">
  <g transform="translate(441.447 -1192.922)">
    <path fill="none" stroke="#34485c" stroke-linecap="round" stroke-linejoin="round" d="M-414.993 1209.155h2.5c.831 0 1.5.67 1.5 1.5"></path>
    <path fill="none" stroke="#34485c" stroke-linecap="round" stroke-linejoin="round" d="M1210.21 419.667a2.496 2.447 0 0 1-3.128-.672 2.496 2.447 0 0 1 .121-3.137" color="#000" overflow="visible" style="isolation:auto;mix-blend-mode:normal" transform="rotate(90)"></path>
    <circle cx="-430.902" cy="1208.922" r="5.5" fill="#4bbfeb" color="#000" overflow="visible" style="isolation:auto;mix-blend-mode:normal"></circle>
    <path fill="#25b39e" fill-rule="evenodd" d="M-440.402 1201.922v14h19.992l4-7-4-7h-7.996zm19.496 5a1.49 1.49 0 0 1 1.496 1.498c0 .085.014.163 0 .244.014.08 0 .167 0 .252 0 .832-.663 1.496-1.496 1.496a1.488 1.488 0 0 1-1.472-1.744 1.49 1.49 0 0 1 1.473-1.746z" color="#000" overflow="visible" style="isolation:auto;mix-blend-mode:normal"></path>
    <path fill="#34485c" d="M-437.366 1206.735c0 2.403 2.583 2.727 2.583 4.457 0 .6-.264.817-.685.817-.42 0-.685-.216-.685-.817v-.6h-1.249v.516c0 1.345.673 2.114 1.97 2.114s1.97-.769 1.97-2.114c0-2.403-2.582-2.727-2.582-4.457 0-.6.24-.829.66-.829.42 0 .66.229.66.83v.348h1.25v-.265c0-1.345-.66-2.114-1.946-2.114-1.285 0-1.946.769-1.946 2.114zm5.97-.816h2.283v-1.202h-3.604v8.409h3.604v-1.201h-2.282v-2.463h1.814v-1.201h-1.814v-2.342zm4.303.732c0-.6.265-.829.685-.829.42 0 .685.229.685.83v4.54c0 .6-.264.829-.685.829-.42 0-.685-.228-.685-.83v-4.54zm-1.32 4.457c0 1.345.708 2.114 2.005 2.114s2.006-.769 2.006-2.114v-4.373c0-1.345-.709-2.114-2.006-2.114-1.297 0-2.006.769-2.006 2.114v4.373z" font-family="Bebas Neue" font-weight="700" letter-spacing="0" style="line-height:125%;-inkscape-font-specification:&quot;Bebas Neue Bold&quot;" word-spacing="0"></path>
    <circle cx="1208.914" cy="420.905" r="1.996" fill="none" stroke="#cad1d8" stroke-linecap="round" stroke-linejoin="round" color="#000" overflow="visible" style="isolation:auto;mix-blend-mode:normal" transform="rotate(90)"></circle>
    <path fill="none" stroke="#34485c" stroke-linecap="round" stroke-linejoin="round" d="M1206.903 416.259a2.496 2.447 0 0 1 3.036-1.05 2.496 2.447 0 0 1 1.567 2.757 2.496 2.447 0 0 1-2.509 1.978" color="#000" overflow="visible" style="isolation:auto;mix-blend-mode:normal" transform="rotate(90)"></path>
  </g>
</svg>
